<svg width="227" height="64" viewBox="0 0 227 64" fill="none" xmlns="http://www.w3.org/2000/svg">
<rect width="227" height="64" fill="#F5F5F5"/>
<g clip-path="url(#clip0_0_1)">
<rect width="320" height="568" transform="translate(-45 -34)" fill="#489583"/>
<g filter="url(#filter0_d_0_1)">
<rect x="-21" y="-43" width="272" height="430" fill="#FFF0D3"/>
</g>
<path d="M12.4375 38V0.239998H14.3575V38H12.4375ZM16.2775 38V0.239998H18.1975V38H16.2775ZM23.9575 38V0.239998H27.7975V38H23.9575ZM35.0625 38V0.239998H36.9825V38H35.0625ZM42.7425 38V0.239998H46.5825V38H42.7425ZM52.3425 38V0.239998H54.2625V38H52.3425ZM57.6875 38V0.239998H61.5275V38H57.6875ZM63.4475 38V0.239998H69.2075V38H63.4475ZM74.9675 38V0.239998H76.8875V38H74.9675ZM80.3125 38V0.239998H82.2325V38H80.3125ZM87.9925 38V0.239998H91.8325V38H87.9925ZM93.7525 38V0.239998H95.6725V38H93.7525ZM102.938 38V0.239998H106.778V38H102.938ZM112.538 38V0.239998H114.458V38H112.538ZM116.378 38V0.239998H122.138V38H116.378ZM125.562 38V0.239998H127.483V38H125.562ZM129.403 38V0.239998H135.163V38H129.403ZM137.083 38V0.239998H140.923V38H137.083ZM148.188 38V0.239998H150.108V38H148.188ZM152.028 38V0.239998H153.948V38H152.028ZM159.708 38V0.239998H163.548V38H159.708ZM170.812 38V0.239998H174.653V38H170.812ZM176.573 38V0.239998H182.333V38H176.573ZM188.093 38V0.239998H190.013V38H188.093ZM193.438 38V0.239998H197.278V38H193.438ZM203.038 38V0.239998H204.958V38H203.038ZM206.878 38V0.239998H208.798V38H206.878Z" fill="#263A73"/>
<path d="M12.3595 59.6159V58.0553C12.3816 56.6608 12.935 55.6537 14.0197 55.0339C14.396 54.8346 15.9012 54.4141 18.5353 53.7721C21.3022 53.1081 22.6746 52.5104 22.6525 51.9792V51.4147C22.6525 50.5514 22.3868 49.7878 21.8556 49.1237C21.1251 48.2383 20.2176 47.7956 19.1329 47.7956V46.2018C20.5717 46.2018 21.7781 46.6556 22.7521 47.5632C23.8588 48.6035 24.4122 49.8984 24.4122 51.4479V60.8444C24.4122 61.5749 24.7 61.9512 25.2755 61.9733V63.6335C24.4565 63.5671 23.6818 63.1576 22.9513 62.405C22.8849 62.4714 22.8074 62.5378 22.7189 62.6042C21.8113 63.2904 20.616 63.6335 19.1329 63.6335V62.0065C21.4793 61.9844 22.6635 60.8665 22.6857 58.653V54.1706C22.0437 54.5026 20.6603 54.9121 18.5353 55.3991C16.1447 55.9303 14.7612 56.3841 14.3849 56.7604C14.1414 57.0039 14.0197 57.4134 14.0197 57.9889V59.1842C14.0197 59.5827 14.0971 59.959 14.2521 60.3132C14.7612 61.4421 15.879 62.0065 17.6056 62.0065V63.6335C16.2332 63.6335 15.06 63.2793 14.0861 62.571C12.935 61.7741 12.3595 60.7891 12.3595 59.6159ZM12.5919 50.5846C12.5919 49.5664 12.9904 48.6367 13.7872 47.7956C14.8497 46.7331 16.1225 46.2018 17.6056 46.2018V47.8288C16.9858 47.8288 16.3992 47.9948 15.8458 48.3268C14.7169 48.9688 14.1525 49.9206 14.1525 51.1823L12.5919 50.5846ZM37.4669 49.3229V47.6628H39.5919V45.3053C39.5919 43.6009 40.09 42.2949 41.0861 41.3874C41.7944 40.7676 42.6798 40.4577 43.7423 40.4577H44.3732L43.9747 42.1178H43.6759C42.1043 42.2285 41.3185 43.291 41.3185 45.3053V47.6628H43.4435V49.3229H41.3185V63.6667H39.5919V49.3229H37.4669ZM55.5685 48.3268V46.6335H57.6935V40.3581H59.42V46.6335H61.545V48.3268H59.42V58.321C59.42 60.1582 60.0398 61.2982 61.2794 61.7409C61.7885 61.8958 62.3751 61.9733 63.0392 61.9733H63.172L63.5704 63.6667H62.8732C60.1948 63.6445 58.5678 62.6042 57.9923 60.5456C57.7931 59.8372 57.6935 58.9961 57.6935 58.0221V48.3268H55.5685ZM74.9318 58.9186V50.9831C74.9539 49.9427 75.4409 48.9466 76.3927 47.9948C77.4773 46.8659 78.8165 46.3014 80.4103 46.3014V47.9284C79.1486 47.9284 78.1082 48.4928 77.2892 49.6217C76.8686 50.1973 76.6583 50.7396 76.6583 51.2487V53.8717H85.6896V51.2487C85.6896 50.1419 85.1473 49.2454 84.0626 48.5592C83.3764 48.1165 82.6681 47.8952 81.9376 47.8952V46.3014C83.4207 46.3014 84.7488 46.8438 85.922 47.9284C86.896 48.8581 87.394 49.8652 87.4161 50.9499V55.5319H76.6583V58.9186C76.6583 59.6048 77.0789 60.3132 77.92 61.0436C78.7169 61.7077 79.5581 62.0397 80.4435 62.0397V63.6667C78.4956 63.6667 76.9572 62.8698 75.8282 61.276C75.2306 60.4349 74.9318 59.6491 74.9318 58.9186ZM81.9376 63.6667V61.9401C83.3764 61.9401 84.5053 61.3314 85.3243 60.1139C85.5678 59.7376 85.7338 59.3835 85.8224 59.0514L87.4493 59.6159C86.9624 61.2318 85.9773 62.3939 84.4943 63.1022C83.6974 63.4785 82.8452 63.6667 81.9376 63.6667ZM100.139 63.6667V46.3014H101.865V49.0241C102.308 48.0944 103.05 47.3639 104.09 46.8327C104.776 46.4785 105.484 46.3014 106.215 46.3014H106.414L105.983 47.9616C104.876 47.9616 103.88 48.6257 102.994 49.9538C102.264 51.0606 101.899 52.2227 101.899 53.4401V63.6667H100.139ZM118.307 63.6667V50.9831C118.307 49.5885 118.783 48.4154 119.734 47.4635C120.642 46.6224 121.804 46.2018 123.221 46.2018V47.8952C121.871 47.8952 120.919 48.4818 120.365 49.655C120.144 50.1419 120.033 50.6621 120.033 51.2155V63.6667H118.307ZM124.682 47.8952V46.2018C126.342 46.2018 127.604 46.7663 128.467 47.8952C128.578 48.0501 128.688 48.2051 128.799 48.36C129.529 47.2533 130.437 46.5781 131.522 46.3346C131.942 46.2461 132.396 46.2018 132.883 46.2018V47.8952C131.555 47.8952 130.603 48.4707 130.027 49.6217C129.784 50.1309 129.662 50.6621 129.662 51.2155V63.6667H127.936V51.2155C127.936 49.8874 127.415 48.9245 126.375 48.3268C125.866 48.0391 125.302 47.8952 124.682 47.8952ZM134.344 47.8952V46.2018C136.402 46.2018 137.874 47.0983 138.76 48.8913C139.114 49.5996 139.291 50.2969 139.291 50.9831V63.6667H137.565V51.2155C137.565 49.8431 137.022 48.8691 135.938 48.2936C135.451 48.028 134.919 47.8952 134.344 47.8952ZM151.815 59.6159V58.0553C151.837 56.6608 152.39 55.6537 153.475 55.0339C153.851 54.8346 155.356 54.4141 157.99 53.7721C160.757 53.1081 162.13 52.5104 162.108 51.9792V51.4147C162.108 50.5514 161.842 49.7878 161.311 49.1237C160.58 48.2383 159.673 47.7956 158.588 47.7956V46.2018C160.027 46.2018 161.233 46.6556 162.207 47.5632C163.314 48.6035 163.867 49.8984 163.867 51.4479V60.8444C163.867 61.5749 164.155 61.9512 164.731 61.9733V63.6335C163.912 63.5671 163.137 63.1576 162.406 62.405C162.34 62.4714 162.262 62.5378 162.174 62.6042C161.266 63.2904 160.071 63.6335 158.588 63.6335V62.0065C160.934 61.9844 162.119 60.8665 162.141 58.653V54.1706C161.499 54.5026 160.115 54.9121 157.99 55.3991C155.6 55.9303 154.216 56.3841 153.84 56.7604C153.596 57.0039 153.475 57.4134 153.475 57.9889V59.1842C153.475 59.5827 153.552 59.959 153.707 60.3132C154.216 61.4421 155.334 62.0065 157.061 62.0065V63.6335C155.688 63.6335 154.515 63.2793 153.541 62.571C152.39 61.7741 151.815 60.7891 151.815 59.6159ZM152.047 50.5846C152.047 49.5664 152.445 48.6367 153.242 47.7956C154.305 46.7331 155.578 46.2018 157.061 46.2018V47.8288C156.441 47.8288 155.854 47.9948 155.301 48.3268C154.172 48.9688 153.608 49.9206 153.608 51.1823L152.047 50.5846ZM176.623 48.3268V46.6335H178.748V40.3581H180.475V46.6335H182.6V48.3268H180.475V58.321C180.475 60.1582 181.095 61.2982 182.334 61.7409C182.843 61.8958 183.43 61.9733 184.094 61.9733H184.227L184.625 63.6667H183.928C181.249 63.6445 179.623 62.6042 179.047 60.5456C178.848 59.8372 178.748 58.9961 178.748 58.0221V48.3268H176.623ZM195.986 63.6667V40.4245H197.647V48.194C198.598 47.1315 199.871 46.5781 201.465 46.5339V48.1608C200.336 48.1608 199.351 48.6257 198.51 49.5553C197.957 50.1751 197.68 50.7949 197.68 51.4147V63.6667H195.986ZM202.992 48.1608V46.5339C205.029 46.5339 206.534 47.2533 207.508 48.6921C208.017 49.4447 208.272 50.2526 208.272 51.1159V63.6667H206.578V51.4147C206.578 50.2415 206.091 49.3451 205.117 48.7253C204.52 48.349 203.811 48.1608 202.992 48.1608Z" fill="#263A73"/>
</g>
<defs>
<filter id="filter0_d_0_1" x="-21" y="-43" width="280" height="438" filterUnits="userSpaceOnUse" color-interpolation-filters="sRGB">
<feFlood flood-opacity="0" result="BackgroundImageFix"/>
<feColorMatrix in="SourceAlpha" type="matrix" values="0 0 0 0 0 0 0 0 0 0 0 0 0 0 0 0 0 0 127 0" result="hardAlpha"/>
<feOffset dx="8" dy="8"/>
<feComposite in2="hardAlpha" operator="out"/>
<feColorMatrix type="matrix" values="0 0 0 0 0.147383 0 0 0 0 0.229054 0 0 0 0 0.45179 0 0 0 1 0"/>
<feBlend mode="normal" in2="BackgroundImageFix" result="effect1_dropShadow_0_1"/>
<feBlend mode="normal" in="SourceGraphic" in2="effect1_dropShadow_0_1" result="shape"/>
</filter>
<clipPath id="clip0_0_1">
<rect width="320" height="568" fill="white" transform="translate(-45 -34)"/>
</clipPath>
</defs>
</svg>
